<mxfile host="app.diagrams.net" modified="2023-11-20T06:49:43.466Z" agent="Mozilla/5.0 (Windows NT 10.0; Win64; x64) AppleWebKit/537.36 (KHTML, like Gecko) Chrome/119.0.0.0 Safari/537.36 Edg/119.0.0.0" etag="4X6aC4Zq5LDFFm467C8Y" version="22.1.3" type="device">
  <diagram id="QV2QbU6DJyAE5WRsaUPY" name="第 1 页">
    <mxGraphModel dx="634" dy="1420" grid="1" gridSize="10" guides="1" tooltips="1" connect="1" arrows="1" fold="1" page="1" pageScale="1" pageWidth="827" pageHeight="1169" background="#ffffff" math="0" shadow="0">
      <root>
        <mxCell id="0" />
        <mxCell id="1" parent="0" />
        <mxCell id="L_geJIkwxUvFEPiPY87e-1" value="租车信息" style="shape=umlLifeline;perimeter=lifelinePerimeter;whiteSpace=wrap;html=1;container=1;dropTarget=0;collapsible=0;recursiveResize=0;outlineConnect=0;portConstraint=eastwest;newEdgeStyle={&quot;curved&quot;:0,&quot;rounded&quot;:0};" parent="1" vertex="1">
          <mxGeometry x="150" y="300" width="100" height="300" as="geometry" />
        </mxCell>
        <mxCell id="2jMEvlEIY4G2QwAUwGE5-2" value="" style="html=1;points=[[0,0,0,0,5],[0,1,0,0,-5],[1,0,0,0,5],[1,1,0,0,-5]];perimeter=orthogonalPerimeter;outlineConnect=0;targetShapes=umlLifeline;portConstraint=eastwest;newEdgeStyle={&quot;curved&quot;:0,&quot;rounded&quot;:0};" vertex="1" parent="L_geJIkwxUvFEPiPY87e-1">
          <mxGeometry x="45" y="100" width="10" height="140" as="geometry" />
        </mxCell>
        <mxCell id="L_geJIkwxUvFEPiPY87e-2" value="生成个性化建议" style="text;align=center;fontStyle=1;verticalAlign=middle;spacingLeft=3;spacingRight=3;strokeColor=none;rotatable=0;points=[[0,0.5],[1,0.5]];portConstraint=eastwest;html=1;" parent="1" vertex="1">
          <mxGeometry x="60" y="230" width="80" height="26" as="geometry" />
        </mxCell>
        <mxCell id="L_geJIkwxUvFEPiPY87e-3" value="建议生成系统" style="shape=umlLifeline;perimeter=lifelinePerimeter;whiteSpace=wrap;html=1;container=1;dropTarget=0;collapsible=0;recursiveResize=0;outlineConnect=0;portConstraint=eastwest;newEdgeStyle={&quot;curved&quot;:0,&quot;rounded&quot;:0};" parent="1" vertex="1">
          <mxGeometry x="320" y="300" width="100" height="300" as="geometry" />
        </mxCell>
        <mxCell id="2jMEvlEIY4G2QwAUwGE5-4" value="" style="html=1;points=[[0,0,0,0,5],[0,1,0,0,-5],[1,0,0,0,5],[1,1,0,0,-5]];perimeter=orthogonalPerimeter;outlineConnect=0;targetShapes=umlLifeline;portConstraint=eastwest;newEdgeStyle={&quot;curved&quot;:0,&quot;rounded&quot;:0};" vertex="1" parent="L_geJIkwxUvFEPiPY87e-3">
          <mxGeometry x="45" y="110" width="10" height="50" as="geometry" />
        </mxCell>
        <mxCell id="2jMEvlEIY4G2QwAUwGE5-1" value="个性化建议" style="shape=umlLifeline;perimeter=lifelinePerimeter;whiteSpace=wrap;html=1;container=1;dropTarget=0;collapsible=0;recursiveResize=0;outlineConnect=0;portConstraint=eastwest;newEdgeStyle={&quot;curved&quot;:0,&quot;rounded&quot;:0};" vertex="1" parent="1">
          <mxGeometry x="490" y="300" width="100" height="300" as="geometry" />
        </mxCell>
        <mxCell id="2jMEvlEIY4G2QwAUwGE5-5" value="" style="html=1;points=[[0,0,0,0,5],[0,1,0,0,-5],[1,0,0,0,5],[1,1,0,0,-5]];perimeter=orthogonalPerimeter;outlineConnect=0;targetShapes=umlLifeline;portConstraint=eastwest;newEdgeStyle={&quot;curved&quot;:0,&quot;rounded&quot;:0};" vertex="1" parent="2jMEvlEIY4G2QwAUwGE5-1">
          <mxGeometry x="45" y="150" width="10" height="80" as="geometry" />
        </mxCell>
        <mxCell id="2jMEvlEIY4G2QwAUwGE5-3" value="分析数据（）" style="html=1;verticalAlign=bottom;startArrow=oval;startFill=1;endArrow=block;startSize=8;curved=0;rounded=0;" edge="1" parent="1" target="L_geJIkwxUvFEPiPY87e-3">
          <mxGeometry width="60" relative="1" as="geometry">
            <mxPoint x="210" y="410" as="sourcePoint" />
            <mxPoint x="270" y="410" as="targetPoint" />
          </mxGeometry>
        </mxCell>
        <mxCell id="2jMEvlEIY4G2QwAUwGE5-6" value="生成建议" style="html=1;verticalAlign=bottom;endArrow=block;curved=0;rounded=0;exitX=1;exitY=1;exitDx=0;exitDy=-5;exitPerimeter=0;" edge="1" target="2jMEvlEIY4G2QwAUwGE5-1" parent="1" source="2jMEvlEIY4G2QwAUwGE5-4">
          <mxGeometry relative="1" as="geometry">
            <mxPoint x="465" y="435" as="sourcePoint" />
          </mxGeometry>
        </mxCell>
        <mxCell id="2jMEvlEIY4G2QwAUwGE5-7" value="分析完成" style="html=1;verticalAlign=bottom;endArrow=open;dashed=1;endSize=8;curved=0;rounded=0;exitX=0;exitY=1;exitDx=0;exitDy=-5;" edge="1" source="2jMEvlEIY4G2QwAUwGE5-5" parent="1" target="2jMEvlEIY4G2QwAUwGE5-2">
          <mxGeometry relative="1" as="geometry">
            <mxPoint x="465" y="505" as="targetPoint" />
          </mxGeometry>
        </mxCell>
      </root>
    </mxGraphModel>
  </diagram>
</mxfile>
